<svg xmlns="http://www.w3.org/2000/svg" viewBox="0 0 64 64">
  <rect width="64" height="64" rx="12" fill="#1a1d24"/>
  <g fill="#f9c74f">
    <!-- Fork (left) -->
    <rect x="10.8" y="10" width="1.2" height="12" rx="0.5"/>
    <rect x="13.4" y="10" width="1.2" height="12" rx="0.5"/>
    <rect x="16.0" y="10" width="1.2" height="12" rx="0.5"/>
    <path d="M10.5 22 h7 v3 q0 1.5 -2 1.8 v23 q0 2 -1.5 2 q-1.5 0 -1.5 -2 v-23 q-2 -0.3 -2 -1.8 z"/>

    <!-- Spoon (right) -->
    <ellipse cx="50" cy="17" rx="4" ry="6.5"/>
    <path d="M48.5 23 h3 v26 q0 2 -1.5 2 q-1.5 0 -1.5 -2 z"/>
  </g>

  <!-- Plate (middle) -->
  <circle cx="32" cy="32" r="11" fill="none" stroke="#f9c74f" stroke-width="2.2"/>
  <circle cx="32" cy="32" r="7"  fill="none" stroke="#f9c74f" stroke-width="1.2"/>
</svg>
